<svg xmlns="http://www.w3.org/2000/svg" viewBox="0 0 128 128">
  <path fill="#ffd859" d="M103.9,27.5c1.7-3.7,5.2-4.5,8.3-2.5c3.1,2,3.5,5.7,1.7,9.4c-1.7,3.7-13.4,17.9-13.4,17.9 s-10.2-15.7-11.9-19.4c-1.7-3.7-0.2-7.2,2.9-9.2C94.6,21.7,102.2,23.8,103.9,27.5z"/>
  <path fill="#8dc63f" d="M24.1,27.5c-1.7-3.7-5.2-4.5-8.3-2.5c-3.1,2-3.5,5.7-1.7,9.4c1.7,3.7,13.4,17.9,13.4,17.9 s10.2-15.7,11.9-19.4c1.7-3.7,0.2-7.2-2.9-9.2C33.4,21.7,25.8,23.8,24.1,27.5z"/>
  <path fill="#35495e" d="M64,41.8c-3.2,0-5.8,2.6-5.8,5.8v52.8c0,3.2,2.6,5.8,5.8,5.8s5.8-2.6,5.8-5.8V47.6 C69.8,44.4,67.2,41.8,64,41.8z"/>
</svg> 